# xmcd CD database file
#
# Track frame offsets:
#	150
#	18670
#	35965
#	53480
#	75147
#	90755
#	105250
#	137122
#	158857
#	183782
#	199495
#	213967
#	236322
#
# Disc length: 3734 seconds
#
# Revision: 0
# Processed by: cddbd v1.5.1PL0 Copyright (c) Steve Scherf et al.
# Submitted via: CDex 1.51
#
DISCID=970e940d
DTITLE=Orange Deluxe - Necking
DYEAR=1995
DGENRE=Blues
TTITLE0=The Stripper
TTITLE1=Love 45
TTITLE2=Soft Control
TTITLE3=Turkey Breast
TTITLE4=Bewitched
TTITLE5=There Goes My Summer
TTITLE6=Angelique
TTITLE7=Pure Grunt
TTITLE8=Memoirs
TTITLE9=Delectable
TTITLE10=Hot Lung
TTITLE11=Atomic Junkie
TTITLE12=Anti-Gravity Blues
EXTD=YEAR: 1995
EXTT0=
EXTT1=
EXTT2=
EXTT3=
EXTT4=
EXTT5=
EXTT6=
EXTT7=
EXTT8=
EXTT9=
EXTT10=
EXTT11=
EXTT12=
PLAYORDER=
